<?xml version="1.0" encoding="UTF-8" standalone="no"?>
<!-- Created with Inkscape (http://www.inkscape.org/) -->

<svg
   width="20.000244mm"
   height="20.000242mm"
   viewBox="0 0 20.000244 20.000242"
   version="1.1"
   id="svg5"
   xml:space="preserve"
   inkscape:export-filename="pep.svg"
   inkscape:export-xdpi="96"
   inkscape:export-ydpi="96"
   xmlns:inkscape="http://www.inkscape.org/namespaces/inkscape"
   xmlns:sodipodi="http://sodipodi.sourceforge.net/DTD/sodipodi-0.dtd"
   xmlns="http://www.w3.org/2000/svg"
   xmlns:svg="http://www.w3.org/2000/svg"><sodipodi:namedview
     id="namedview7"
     pagecolor="#505050"
     bordercolor="#ffffff"
     borderopacity="1"
     inkscape:showpageshadow="0"
     inkscape:pageopacity="0"
     inkscape:pagecheckerboard="1"
     inkscape:deskcolor="#505050"
     inkscape:document-units="mm"
     showgrid="false" /><defs
     id="defs2" /><g
     id="g710"
     transform="matrix(0.35277776,0,0,-0.35277778,10.000128,10.000121)"
     style="stroke:#ffffff;stroke-opacity:1"><g
       id="g712"
       style="stroke:#ffffff;stroke-opacity:1"><g
         id="g714"
         style="stroke:#ffffff;stroke-opacity:1"><g
           id="g716"
           style="stroke:#ffffff;stroke-opacity:1"><g
             id="g718"
             style="stroke:#ffffff;stroke-opacity:1"><path
               d="M 27.84866,0 C 27.84866,15.38058 15.38058,27.84866 0,27.84866 -15.38058,27.84866 -27.84866,15.38058 -27.84866,0 c 0,-15.38058 12.46808,-27.84866 27.84866,-27.84866 15.38058,0 27.84866,12.46808 27.84866,27.84866 z"
               style="fill:none;stroke:#ffffff;stroke-width:0.99628;stroke-linecap:butt;stroke-linejoin:miter;stroke-miterlimit:10;stroke-dasharray:none;stroke-opacity:1"
               id="path720" /></g><g
             id="g722"
             style="stroke:#ffffff;stroke-opacity:1"><path
               d="m -27.46834,5.10074 c 0,0 0.20236,-0.29634 0.28008,-0.44768 0.07773,-0.15134 0.20237,-0.43878 0.28009,-0.6431 0.07773,-0.20433 0.20234,-0.57479 0.28007,-0.82956 0.07772,-0.25477 0.20236,-0.70605 0.28008,-1.00666 0.07772,-0.30063 0.20237,-0.82058 0.28009,-1.16008 0.07771,-0.33951 0.20234,-0.91686 0.28007,-1.28691 0.07772,-0.37008 0.20238,-0.99016 0.28009,-1.38041 0.07773,-0.39022 0.20237,-1.03376 0.28008,-1.43216 0.07771,-0.39837 0.20236,-1.04548 0.28007,-1.43916 0.07772,-0.39369 0.20238,-1.02315 0.28009,-1.3983 0.07772,-0.37517 0.20235,-0.96307 0.28008,-1.30566 0.07771,-0.34258 0.20236,-0.8678 0.28009,-1.16356 0.07771,-0.29576 0.20236,-0.7324 0.28007,-0.96814 0.07772,-0.23575 0.20237,-0.56709 0.28008,-0.73106 0.07771,-0.16399 0.20236,-0.36962 0.28007,-0.45081 0.07774,-0.08118 0.20237,-0.14363 0.28008,-0.13429 0.07773,0.0093 0.20238,0.09628 0.28011,0.20166 0.07771,0.10536 0.20234,0.35354 0.28005,0.55781 0.07773,0.20427 0.20238,0.61214 0.2801,0.91443 0.07771,0.3023 0.20236,0.86801 0.28009,1.26439 0.07771,0.39639 0.20234,1.11008 0.28006,1.59256 0.07772,0.4825 0.20237,1.32741 0.28009,1.8849 0.07771,0.55751 0.20236,1.515 0.28007,2.13327 0.07773,0.61824 0.20238,1.66101 0.28009,2.32278 0.07773,0.66181 0.20236,1.76124 0.28008,2.44703 0.07771,0.68577 0.20236,1.80742 0.28007,2.49568 0.07773,0.68828 0.20238,1.79719 0.28009,2.46495 0.07771,0.66774 0.20235,1.72357 0.28008,2.34775 0.07771,0.62416 0.20238,1.59265 0.28008,2.15077 0.07774,0.55811 0.20237,1.4017 0.28008,1.87166 0.07772,0.46996 0.20235,1.15329 0.28008,1.51549 0.07771,0.36219 0.20237,0.85743 0.28009,1.09504 0.07773,0.2376 0.20235,0.51803 0.28007,0.61741 0.07772,0.09935 0.20236,0.14688 0.28009,0.09887 0.07772,-0.04802 0.20235,-0.24512 0.28006,-0.44495 0.07773,-0.19982 0.20236,-0.64405 0.28009,-0.9954 0.07772,-0.35135 0.20237,-1.03926 0.28009,-1.53687 0.07772,-0.4976 0.20235,-1.41618 0.28006,-2.04957 0.07773,-0.63339 0.20238,-1.76207 0.28011,-2.51554 0.07771,-0.75346 0.20235,-2.06172 0.28006,-2.91494 0.07772,-0.85321 0.20236,-2.30582 0.28007,-3.23453 0.07773,-0.92874 0.20238,-2.4828 0.28011,-3.45917 0.07771,-0.97635 0.20234,-2.58386 0.28006,-3.57785 0.07773,-0.99397 0.20238,-2.60594 0.28009,-3.58604 0.07773,-0.98011 0.20236,-2.54419 0.28007,-3.47786 0.07773,-0.93364 0.20237,-2.39563 0.28008,-3.25127 0.07773,-0.85566 0.20238,-2.16777 0.28009,-2.91572 0.07771,-0.74796 0.20236,-1.8617 0.28007,-2.47506 0.07773,-0.61334 0.20238,-1.49048 0.2801,-1.94563 0.07772,-0.45514 0.20236,-1.05614 0.28007,-1.33484 0.07771,-0.27868 0.20238,-0.58451 0.28008,-0.67384 0.07773,-0.08934 0.20237,-0.07767 0.28009,0.02997 0.07771,0.10765 0.20234,0.44113 0.28007,0.74586 0.07771,0.30473 0.20237,0.95442 0.28009,1.45046 0.07771,0.49606 0.20236,1.45027 0.28008,2.12471 0.07771,0.67443 0.20236,1.90194 0.28007,2.73626 0.07771,0.83432 0.20236,2.3066 0.28009,3.27697 0.07771,0.97036 0.20235,2.63993 0.28008,3.71687 0.07771,1.07693 0.20236,2.89435 0.28009,4.04501 0.07771,1.15067 0.20234,3.05992 0.28006,4.24825 0.07773,1.18827 0.20237,3.12777 0.28011,4.3163 0.07769,1.18852 0.20234,3.09884 0.28007,4.24978 0.07771,1.15093 0.20234,2.96912 0.28006,4.04541 0.07773,1.0763 0.20237,2.74521 0.2801,3.7118 0.07772,0.96659 0.20235,2.42944 0.28007,3.25478 0.07772,0.82537 0.20237,2.03629 0.28008,2.69384 0.07773,0.65755 0.20237,1.57748 0.28009,2.04527 0.07772,0.46779 0.20235,1.0638 0.28006,1.32629 0.07773,0.2625 0.20238,0.51644 0.28009,0.56563 0.07772,0.04921 0.20234,-0.04507 0.28006,-0.21101 0.07772,-0.16591 0.20237,-0.60916 0.28009,-0.98486 0.07772,-0.37569 0.20235,-1.14976 0.28006,-1.72296 0.07773,-0.57323 0.20237,-1.65633 0.28009,-2.4085 0.07772,-0.75215 0.20237,-2.10676 0.28009,-3.01265 0.07772,-0.90588 0.20235,-2.48615 0.28006,-3.51639 0.07773,-1.03021 0.20238,-2.78738 0.28009,-3.90876 0.07774,-1.1214 0.20237,-2.99738 0.28008,-4.17348 0.07773,-1.1761 0.20236,-3.10999 0.28007,-4.30312 0.07773,-1.19313 0.20238,-3.12368 0.28009,-4.29608 0.07772,-1.17238 0.20237,-3.03871 0.28008,-4.15362 0.07773,-1.11492 0.20238,-2.85916 0.28009,-3.88192 0.07773,-1.02276 0.20236,-2.58975 0.28008,-3.48951 0.07771,-0.89978 0.20235,-2.24541 0.28007,-2.99553 0.07773,-0.75011 0.20238,-1.83204 0.28009,-2.41081 0.07771,-0.5788 0.20235,-1.36789 0.28008,-1.76073 0.07771,-0.39284 0.20237,-0.87279 0.28009,-1.07053 0.07772,-0.19774 0.20236,-0.35458 0.28007,-0.35463 0.07771,-4e-5 0.20235,0.16085 0.28008,0.35425 0.07771,0.19341 0.20237,0.66327 0.28009,1.03978 0.07771,0.37648 0.20234,1.13028 0.28007,1.67391 0.07771,0.54361 0.20236,1.55459 0.28009,2.2442 0.07772,0.6896 0.20236,1.91602 0.28008,2.72612 0.07771,0.81013 0.20236,2.2107 0.28007,3.1127 0.07772,0.90199 0.20237,2.4255 0.28009,3.3883 0.07772,0.96282 0.20235,2.55928 0.28006,3.55103 0.07773,0.99176 0.20238,2.60866 0.28011,3.59695 0.07771,0.98832 0.20234,2.57213 0.28006,3.52608 0.07773,0.95395 0.20237,2.45847 0.28009,3.3494 0.0777,0.89091 0.20234,2.27006 0.28007,3.0718 0.07772,0.80174 0.20235,2.01658 0.28006,2.70667 0.07773,0.69011 0.20238,1.70597 0.28009,2.26718 0.07772,0.56125 0.20237,1.35863 0.28008,1.77786 0.07773,0.41924 0.20238,0.9744 0.28009,1.24375 0.07773,0.26935 0.20236,0.58056 0.28007,0.6976 0.07772,0.11703 0.20237,0.17928 0.28008,0.14596 C 2.0178,17.27917 2.14246,17.10251 2.22017,16.92633 2.2979,16.75014 2.42253,16.34998 2.50024,16.04266 2.57796,15.73535 2.70262,15.13423 2.78033,14.71132 2.85806,14.2884 2.9827,13.5149 3.06041,12.9946 3.13812,12.4743 3.26276,11.55814 3.34048,10.96136 3.4182,10.3646 3.54286,9.34425 3.62057,8.6934 3.6983,8.04257 3.82294,6.95242 3.90065,6.27052 3.97836,5.58862 4.10301,4.46841 4.18074,3.77873 4.25845,3.08905 4.38309,1.97504 4.4608,1.29979 4.53853,0.62454 4.66316,-0.44766 4.74089,-1.08803 4.8186,-1.72838 4.94325,-2.72827 5.02098,-3.31549 c 0.07772,-0.58724 0.20235,-1.4865 0.28006,-2.00479 0.07773,-0.5183 0.20238,-1.29408 0.28011,-1.73076 0.07771,-0.43668 0.20235,-1.07071 0.28007,-1.4166 0.07771,-0.34588 0.20235,-0.82698 0.28006,-1.07635 0.07773,-0.24936 0.20238,-0.57042 0.28011,-0.72095 0.07771,-0.15054 0.20234,-0.31143 0.28006,-0.36396 0.07772,-0.05256 0.20237,-0.05558 0.28009,-0.0148 0.07773,0.04076 0.20236,0.18151 0.28009,0.3087 0.07771,0.12719 0.20234,0.40368 0.28006,0.60806 0.07773,0.20437 0.20237,0.59486 0.28009,0.86497 0.07771,0.27011 0.20236,0.75877 0.28007,1.08182 0.07773,0.32303 0.20238,0.88449 0.28009,1.24647 0.07773,0.36199 0.20236,0.97539 0.28008,1.36248 0.07771,0.3871 0.20238,1.02943 0.28008,1.42749 0.07772,0.39807 0.20237,1.046 0.28008,1.44151 0.07772,0.39552 0.20235,1.0287 0.28008,1.40921 0.07771,0.38051 0.20238,0.97862 0.28009,1.33325 0.07773,0.35463 0.20236,0.90341 0.28007,1.22274 0.07772,0.31932 0.20237,0.80232 0.28008,1.07868 0.07771,0.27637 0.20236,0.68544 0.28009,0.91326 0.07771,0.22781 0.20236,0.55314 0.28007,0.72874 0.07772,0.17559 0.20237,0.4148 0.28009,0.53681 0.07772,0.12202 0.20235,0.27421 0.28006,0.34259 0.07773,0.06836 0.20238,0.1334 0.28011,0.15025 0.0777,0.01685 0.20235,0.00235 0.28008,-0.02881 0.07771,-0.03116 0.20234,-0.12181 0.28005,-0.1958 0.07773,-0.074 0.20238,-0.22674 0.28011,-0.33751 C 12.66087,4.74045 12.7855,4.53192 12.86322,4.3903 12.94095,4.24869 13.0656,3.9955 13.14331,3.83049 13.22104,3.6655 13.34567,3.3818 13.4234,3.20103 13.50111,3.02026 13.62575,2.71715 13.70346,2.52757 13.78119,2.33801 13.90584,2.02611 13.98355,1.83466 14.06128,1.64319 14.18591,1.33452 14.26364,1.14757 14.34135,0.96065 14.466,0.66418 14.54372,0.48735 c 0.07772,-0.17682 0.20236,-0.45229 0.28007,-0.61423 0.07771,-0.16198 0.20236,-0.40988 0.28008,-0.55317 0.07773,-0.14328 0.20237,-0.35796 0.28009,-0.47959 0.07773,-0.12164 0.20236,-0.2991 0.28007,-0.39708 0.07771,-0.09796 0.20237,-0.23559 0.28009,-0.30908 0.07772,-0.0735 0.20236,-0.17195 0.28008,-0.22072 0.07771,-0.04878 0.20234,-0.10586 0.28007,-0.1308 0.07772,-0.02494 0.20236,-0.04608 0.28009,-0.04904 0.07772,-0.00299 0.20236,0.01073 0.28008,0.02764 0.07771,0.01689 0.20236,0.05967 0.28009,0.09419 0.07771,0.0345 0.20235,0.10524 0.28007,0.15454 0.07772,0.04932 0.20235,0.14012 0.28008,0.20088 0.07771,0.06076 0.20236,0.16773 0.28009,0.23706 0.07771,0.06934 0.20235,0.18834 0.28006,0.26277 0.07773,0.07444 0.20237,0.19724 0.2801,0.27365 0.07772,0.07645 0.20235,0.20125 0.28008,0.27718 0.07771,0.07595 0.20235,0.19731 0.28006,0.27017 0.07773,0.07285 0.20238,0.18724 0.2801,0.25498 0.07772,0.06772 0.20235,0.17215 0.28006,0.23314 0.07773,0.06102 0.20238,0.15367 0.28009,0.20669 0.07773,0.05304 0.20237,0.1315 0.2801,0.17557 0.07771,0.04407 0.20236,0.10731 0.28005,0.14209 0.07773,0.03477 0.20238,0.0833 0.2801,0.10863 0.07773,0.02531 0.20236,0.05796 0.28007,0.07396 0.07771,0.01597 0.20238,0.03375 0.28009,0.04124 0.07773,0.00752 0.20237,0.013 0.28007,0.01286 0.07772,-1.5e-4 0.20237,-0.00653 0.2801,-0.01402 0.0777,-0.00749 0.20236,-0.0267 0.28007,-0.04008 C 22.4637,0.71338 22.58833,0.68813 22.66605,0.67032 22.74376,0.65251 22.86841,0.61969 22.94614,0.5983 23.02385,0.5769 23.1485,0.53983 23.22621,0.51616 23.30392,0.49251 23.42857,0.45296 23.5063,0.4278 23.584,0.40263 23.70865,0.36024 23.78638,0.33476 23.86409,0.30928 23.98874,0.2688 24.06645,0.24405 24.14417,0.21931 24.26881,0.1799 24.34654,0.15648 24.42426,0.13304 24.54889,0.09656 24.62662,0.0751 c 0.07771,-0.02143 0.20236,-0.05429 0.28009,-0.07318 0.07771,-0.01886 0.20234,-0.04692 0.28007,-0.06303 0.07772,-0.01609 0.20235,-0.03986 0.28006,-0.05293 0.07773,-0.01305 0.20238,-0.03106 0.28011,-0.04125 0.07771,-0.01022 0.20235,-0.02519 0.28007,-0.03233 0.07772,-0.00713 0.20237,-0.01476 0.28008,-0.01908 0.07773,-0.0043 0.20236,-0.01 0.28009,-0.01205 0.07771,-0.00205 0.20235,-0.00315 0.28006,-0.00273 0.07773,4.3e-4 0.20238,0.00331 0.28009,0.00584 0.07773,0.00254 0.20236,0.0084 0.28007,0.01245 0.07772,0.00405 0.20238,0.01146 0.28009,0.01674 0.07773,0.0053 0.20237,0.01517 0.28008,0.02143 0.07772,0.00624 0.28007,0.02372 0.28007,0.02372"
               style="fill:none;stroke:#ffffff;stroke-width:0.99628;stroke-linecap:butt;stroke-linejoin:miter;stroke-miterlimit:10;stroke-dasharray:none;stroke-opacity:1"
               id="path724" /></g></g></g></g></g></svg>
