<?xml version="1.0" encoding="UTF-8" standalone="no"?>
<!-- Created with Inkscape (http://www.inkscape.org/) -->

<svg
   width="20.00032mm"
   height="20.00033mm"
   viewBox="0 0 20.00032 20.00033"
   version="1.1"
   id="svg5"
   xml:space="preserve"
   inkscape:version="1.2.1 (9c6d41e410, 2022-07-14)"
   sodipodi:docname="pep_neg.svg"
   xmlns:inkscape="http://www.inkscape.org/namespaces/inkscape"
   xmlns:sodipodi="http://sodipodi.sourceforge.net/DTD/sodipodi-0.dtd"
   xmlns="http://www.w3.org/2000/svg"
   xmlns:svg="http://www.w3.org/2000/svg"><sodipodi:namedview
     id="namedview7"
     pagecolor="#505050"
     bordercolor="#ffffff"
     borderopacity="1"
     inkscape:showpageshadow="0"
     inkscape:pageopacity="0"
     inkscape:pagecheckerboard="1"
     inkscape:deskcolor="#505050"
     inkscape:document-units="mm"
     showgrid="false"
     inkscape:zoom="8.3553674"
     inkscape:cx="881.2898"
     inkscape:cy="43.086077"
     inkscape:window-width="1920"
     inkscape:window-height="1009"
     inkscape:window-x="1912"
     inkscape:window-y="-8"
     inkscape:window-maximized="1"
     inkscape:current-layer="svg5" /><defs
     id="defs2" /><g
     id="g192"
     transform="matrix(0.35277776,0,0,-0.35277778,10.000338,10.000192)"
     inkscape:export-filename="pep_neg.svg"
     inkscape:export-xdpi="96"
     inkscape:export-ydpi="96"><g
       id="g194"><g
         id="g196"><g
           id="g198"><g
             id="g200"><path
               id="path202"
               style="fill:#868e96;fill-opacity:1;fill-rule:nonzero;stroke:none;stroke-width:1.00063;stroke-dasharray:none"
               d="M 2.1132506e-4,28.347001 C -14.025336,28.347001 -25.664053,18.15858 -27.93729,4.7805947 l 1.464844,1.0004882 c 0,0 0.183715,-0.2380087 0.357422,-0.5756836 v -0.00293 c 0.121607,-0.2369751 0.237766,-0.5102345 0.333984,-0.7631836 0.09768,-0.256762 0.218662,-0.6199796 0.306152,-0.9067383 0.0887,-0.290748 0.213179,-0.7362067 0.295899,-1.0561523 0.08385,-0.324343 0.206566,-0.8420182 0.287109,-1.1938477 0.08149,-0.35600389 0.205014,-0.931221 0.28418,-1.30810545 0.0801,-0.38140688 0.206012,-1.00051535 0.28418,-1.39306635 0.0791,-0.39712 0.20387,-1.0403031 0.28125,-1.4370118 0.0783,-0.4013878 0.201785,-1.0478186 0.27832,-1.4355468 0.07757,-0.3929262 0.202998,-1.0235867 0.27832,-1.387207 0.07653,-0.3694522 0.201986,-0.9611441 0.275391,-1.284668 0.04057,-0.1788494 0.09307,-0.3861067 0.146484,-0.6079102 0.0042,0.020986 0.0093,0.044564 0.01318,0.064453 0.07197,0.3670886 0.198703,1.0842919 0.273926,1.5512695 0.07476,0.4641428 0.19901,1.3139412 0.27539,1.8618164 0.07599,0.5451606 0.201298,1.5038975 0.278321,2.1166992 0.0767,0.6100382 0.202382,1.65383851 0.279785,2.31298826 0.0771,0.65645392 0.202069,1.75467844 0.279785,2.44042964 0.07739,0.6829468 0.200352,1.8055504 0.27832,2.4960938 0.07766,0.68761 0.202936,1.7967772 0.28125,2.4697265 0.07795,0.6698216 0.202448,1.7241397 0.28125,2.3569329 0.07835,0.629308 0.20157,1.595628 0.28125,2.167969 0.07913,0.568082 0.203897,1.408454 0.285645,1.902832 0.08088,0.489059 0.20397,1.163893 0.291504,1.571777 0.0859,0.400379 0.198816,0.871217 0.312012,1.217286 0.05449,0.166564 0.117861,0.325967 0.1875,0.480468 0.06964,0.154501 0.103284,0.266979 0.288574,0.503907 0.174141,0.222605 0.385637,0.388752 0.679687,0.495117 0.294052,0.106365 0.748102,0.156188 1.183594,-0.112793 0.421358,-0.26034 0.431021,-0.396499 0.527344,-0.549317 0.09632,-0.152818 0.175382,-0.30826 0.244629,-0.486328 0.138775,-0.356747 0.243834,-0.764389 0.333984,-1.171875 0.09069,-0.409972 0.211061,-1.0869 0.292969,-1.611328 0.08231,-0.526967 0.206118,-1.439204 0.285645,-2.087402 0.07984,-0.650598 0.204095,-1.77648 0.282714,-2.538574 0.07883,-0.7642679 0.203076,-2.0713632 0.28125,-2.9296875 0.07837,-0.8603572 0.203319,-2.3118062 0.28125,-3.2431641 0.07812,-0.933378 0.203461,-2.4872292 0.28125,-3.4643554 0.07793,-0.97905287 0.202132,-2.5869406 0.279786,-3.5800781 0.07782,-0.9950971 0.200813,-2.6069425 0.27832,-3.5844726 0.07769,-0.9796311 0.203933,-2.5427417 0.28125,-3.4716803 0.07752,-0.931147 0.202762,-2.395081 0.279785,-3.243164 0.07727,-0.850594 0.20043,-2.164793 0.276856,-2.90039 0.008,-0.07716 0.02033,-0.170484 0.0293,-0.254883 0.0326,0.327719 0.06676,0.625384 0.09229,0.899414 0.0766,0.822444 0.202496,2.29735 0.279785,3.262207 0.07711,0.962917 0.200811,2.633646 0.27832,3.7075197 0.07736,1.0721175 0.202143,2.8892205 0.279785,4.0385742 0.07751,1.1476761 0.202056,3.0580929 0.279786,4.24658201 0.07763,1.18676737 0.200483,3.12540989 0.27832,4.31542969 0.07768,1.1883684 0.203316,3.0984745 0.28125,4.2524414 0.0778,1.1522232 0.203174,2.969065 0.28125,4.050292 0.07795,1.079346 0.201421,2.749162 0.279785,3.723633 0.07818,0.972362 0.202342,2.433042 0.28125,3.270996 0.07868,0.835585 0.202393,2.04349 0.282715,2.723145 0.07998,0.676583 0.204588,1.584798 0.290039,2.099121 0.08474,0.510044 0.1928722,1.069737 0.3120117,1.472168 0.058637,0.198023 0.1279555,0.378244 0.2153321,0.555176 0.087377,0.176931 -0.008,0.31662 0.5771484,0.687011 0.2895847,0.183356 0.6684785,0.226164 0.9345704,0.175782 0.2660919,-0.05038 0.4431076,-0.156693 0.5771485,-0.257813 0.2680816,-0.202241 0.4001645,-0.407988 0.5068359,-0.635742 0.2176375,-0.464595 0.2747888,-0.810505 0.366211,-1.252441 0.092482,-0.44705 0.2145453,-1.20608 0.2958984,-1.806153 0.081844,-0.603568 0.2050764,-1.680732 0.2841797,-2.446289 0.079386,-0.76827 0.202895,-2.118934 0.28125,-3.032226 0.078545,-0.91549 0.2032231,-2.495833 0.2812501,-3.530274 0.078193,-1.036345 0.2033979,-2.792098 0.28125,-3.9155267 0.078007,-1.1252567 0.2020449,-3.0011775 0.2797851,-4.1777343 0.077873,-1.17826 0.203598,-3.1129365 0.2812501,-4.3051758 0.077779,-1.19387855 0.2022249,-3.124781 0.2797851,-4.2949218 0.077678,-1.1717465 0.2008817,-3.0374208 0.2783203,-4.1484375 0.077578,-1.1127376 0.2025419,-2.8578948 0.2797852,-3.8745119 0.077402,-1.018441 0.2028841,-2.585794 0.2797852,-3.476074 0.059912,-0.693703 0.1444541,-1.570789 0.2167969,-2.312989 0.064286,0.615277 0.1312283,1.244068 0.1816406,1.769532 0.076799,0.800636 0.2009133,2.202591 0.2783203,3.101074 0.077217,0.896149 0.2021767,2.4194409 0.2797852,3.3808595 0.077437,0.9593129 0.203511,2.5571965 0.28125,3.5493164 0.077599,0.9900903 0.2018955,2.607336 0.2797852,3.5976562 0.077716,0.98839668 0.2032306,2.5711835 0.28125,3.5288086 0.077869,0.9556577 0.2000862,2.4591338 0.2783203,3.355957 0.078039,0.8947975 0.2026505,2.272787 0.28125005,3.0834961 0.0783779,0.808527 0.20490274,2.0206032 0.2841797,2.7246092 0.0790472,0.701804 0.20191699,1.716295 0.28271486,2.299804 0.080464,0.581066 0.20303872,1.369608 0.28857423,1.831055 0.08507163,0.458837 0.20277281,0.994511 0.3076172,1.35791 0.10433568,0.361545 0.13960723,0.588474 0.43359377,1.03125 0.14873486,0.223964 0.33264426,0.400595 0.59326179,0.534668 0.2606174,0.134072 0.6639212,0.268651 1.1674805,0.05274 C 2.9496047,18.19241 2.9517155,18.025208 3.0588052,17.876298 3.1658948,17.727388 3.2490537,17.58319 3.323942,17.413407 3.4817151,17.055784 3.5778014,16.701426 3.6696451,16.338212 3.763866,15.965657 3.8845773,15.377635 3.9670084,14.929032 4.0505643,14.474414 4.174373,13.705144 4.2541178,13.17122 4.3345507,12.632689 4.4582014,11.721285 4.5368326,11.117509 4.6159606,10.50994 4.7399637,9.4895568 4.8180827,8.8352821 4.8966115,8.1776838 5.0215694,7.0889387 5.0993327,6.4065712 5.1774393,5.721191 5.3015947,4.6012523 5.3791178,3.9134072 5.4569414,3.22272 5.5816721,2.1089089 5.658903,1.4378212 5.7364708,0.76398054 5.8603161,-0.3104229 5.9372233,-0.94401467 6.0144401,-1.5802998 6.1406393,-2.5789891 6.2170085,-3.1559287 v -0.00293 c 0.076728,-0.579748 0.2014408,-1.4789513 0.2768555,-1.9819333 0.075861,-0.5058367 0.2018649,-1.2861574 0.2753906,-1.6992187 0.039447,-0.2216665 0.090986,-0.4618289 0.1435547,-0.7265625 0.00532,0.021851 0.012689,0.048523 0.017578,0.068848 0.071976,0.2991165 0.1965855,0.8623858 0.2724609,1.2158203 0.074571,0.3472799 0.1982492,0.9634477 0.2753906,1.3476563 0.076029,0.3787257 0.2018204,1.0229467 0.2797852,1.4223632 0.077029,0.3945303 0.202538,1.0407963 0.28125,1.4414063 0.077799,0.3959218 0.2016059,1.0280884 0.28125,1.41796873 0.078733,0.38551877 0.2020441,0.98390911 0.2827149,1.35205077 0.079743,0.3638116 0.204387,0.9081195 0.2871094,1.2480469 0.081707,0.3357 0.2056446,0.8152638 0.2915039,1.1206054 0.084736,0.3013584 0.2058659,0.7045866 0.2988282,0.9770508 0.091668,0.2687288 0.2102204,0.5829154 0.3178711,0.8261719 0.1068111,0.2413145 0.2201225,0.4656258 0.3676755,0.6972656 0.147465,0.2315194 0.235628,0.3669197 0.499512,0.5991211 0.273016,0.2401053 0.378398,0.3269081 0.823242,0.4233398 0.476579,0.103067 0.613957,0.060601 0.984375,-0.087891 0.414255,-0.1661066 0.474289,-0.2620881 0.66211,-0.440918 0.211639,-0.2014837 0.308522,-0.3367684 0.435059,-0.5170898 0.138275,-0.1970858 0.250984,-0.3936169 0.350097,-0.5742187 0.10781,-0.1964108 0.22657,-0.4424139 0.313477,-0.6269532 0.09307,-0.1975576 0.215717,-0.4766271 0.297363,-0.6665039 0.0861,-0.2002985 0.210322,-0.5019698 0.288574,-0.6928711 0.0822,-0.2004659 0.206185,-0.5108695 0.28125,-0.6958007 0.07865,-0.193738 0.202883,-0.5038312 0.275391,-0.6782227 0.07574,-0.1821924 0.203411,-0.4815686 0.272461,-0.63867186 0.07226,-0.16440188 0.199145,-0.44267944 0.263672,-0.57714844 0.06773,-0.14116904 0.194514,-0.395077642 0.251953,-0.50097655 0.06083,-0.11212232 0.18981,-0.33226239 0.23584,-0.40429688 0.04935,-0.0772226 0.182217,-0.26153399 0.209472,-0.29589843 0.02924,-0.0368599 0.164748,-0.1852171 0.164063,-0.18457031 4.98e-4,-4.7021e-4 0.05357,-0.0404186 0.07031,-0.055664 0.0089,0.0024 0.01704,0.00529 0.01172,0.00293 -0.04399,-0.019531 0.09718,0.0568317 0.123047,0.0732421 0.0048,0.003036 0.138871,0.0972582 0.183106,0.13183594 v -0.001465 c 0.02946,0.0230311 0.158212,0.13400266 0.218261,0.1875 0.04425,0.0394824 0.174257,0.16136053 0.250489,0.234375 0.06434,0.0616181 0.189299,0.184777 0.268066,0.26220703 0.06945,0.06831349 0.193412,0.19401583 0.282715,0.28125 0.07944,0.0776407 0.203045,0.19730458 0.298828,0.28710937 0.08751,0.0820175 0.208823,0.19277641 0.312012,0.28271484 0.09618,0.0838082 0.217093,0.18678387 0.328125,0.27392578 0.103926,0.0815843 0.22218,0.17014011 0.344238,0.25341791 0.116149,0.079256 0.233941,0.154354 0.364746,0.2285156 0.128448,0.072844 0.247573,0.1323789 0.383789,0.1933594 0.134605,0.060211 0.250426,0.1055696 0.398438,0.1538086 0.148267,0.048278 0.264491,0.079871 0.410156,0.1098633 h 0.0015 c 0.153959,0.03164 0.269234,0.0469 0.405762,0.060059 0.144836,0.014012 0.261702,0.017824 0.398437,0.017578 0.141238,-2.726e-4 0.257397,-0.00602 0.392578,-0.019043 0.151115,-0.014567 0.26911,-0.034047 0.369141,-0.05127 h 0.0029 c 0.115002,-0.019825 0.233341,-0.045235 0.342773,-0.070312 0.118455,-0.027148 0.239588,-0.058326 0.331055,-0.083496 0.10315,-0.028406 0.226171,-0.066138 0.312012,-0.092285 0.09234,-0.028101 0.213996,-0.066291 0.298828,-0.09375 h 0.0015 c 0.09562,-0.030975 0.220027,-0.074186 0.28418,-0.095215 0.07424,-0.024342 0.198804,-0.065364 0.269531,-0.087891 0.07534,-0.023983 0.202796,-0.063689 0.263672,-0.082031 0.06766,-0.020406 0.193419,-0.055616 0.251953,-0.071777 0.06367,-0.017558 0.189805,-0.051485 0.243165,-0.064453 0.05694,-0.013819 0.184159,-0.044043 0.240234,-0.055664 0.05798,-0.012004 0.184535,-0.034097 0.234375,-0.04248 0.04878,-0.00819 0.17787,-0.027173 0.23877,-0.035156 0.06337,-0.00833 0.191147,-0.023995 0.23291,-0.027832 0.03852,-0.00353 0.165007,-0.01069 0.23584,-0.0146485 0.06543,-0.00362 0.193299,-0.0103264 0.246093,-0.0117188 0.05509,-0.001453 0.182342,-0.003251 0.2417,-0.00293 0.05507,3.0465e-4 0.180555,0.003726 0.246093,0.005859 0.05927,0.001937 0.186651,0.00801 0.257813,0.0117187 0.0683,0.00356 0.193925,0.011573 0.260742,0.016113 0.06364,0.00434 0.189174,0.012924 0.265137,0.019043 0.06508,0.00523 0.273926,0.023437 0.273926,0.023437 l 0.161132,-1.87499998 c 0.0077,0.27152501 0.02051,0.5410683 0.02051,0.81445311489 C 28.346404,15.655029 15.655896,28.347001 2.1132506e-4,28.347001 Z M -8.0813321,18.529618 C -8.15837,17.694459 -8.2700849,16.407358 -8.3420743,15.51204 -8.4191702,14.553338 -8.5428849,12.882165 -8.6203946,11.808915 -8.6977577,10.737566 -8.8225574,8.918508 -8.9001797,7.7688759 -8.9777051,6.6209674 -9.1022653,4.7124255 -9.1799649,3.5237587 -9.2576071,2.3367233 -9.3804572,0.3966321 -9.4582852,-0.79313577 -9.5359942,-1.9813019 -9.6616233,-3.8919178 -9.7395353,-5.0455771 c -0.077818,-1.1519616 -0.2031934,-2.9685549 -0.2812497,-4.050293 -0.07795,-1.0800019 -0.20148,-2.7487639 -0.279785,-3.7265629 -0.07817,-0.975879 -0.202435,-2.445311 -0.28125,-3.291503 -0.07862,-0.844135 -0.202744,-2.068644 -0.282715,-2.762696 -0.0797,-0.69161 -0.20332,-1.638956 -0.28711,-2.173828 -0.08332,-0.531781 -0.200399,-1.158317 -0.303222,-1.561523 -0.05098,-0.199857 -0.112648,-0.391191 -0.180176,-0.571289 -0.06753,-0.180098 -0.08433,-0.298051 -0.290039,-0.583008 -0.205885,-0.285145 -0.558821,-0.536706 -0.994629,-0.581543 -0.435809,-0.04484 -0.907859,0.16215 -1.17334,0.467285 -0.276524,0.317913 -0.274169,0.424512 -0.345703,0.597656 -0.07153,0.173144 -0.134483,0.351864 -0.1875,0.541992 -0.108582,0.389419 -0.223537,0.965131 -0.307617,1.45752 -0.08498,0.497667 -0.207192,1.365978 -0.28711,1.996582 -0.08038,0.634422 -0.204023,1.74454 -0.282715,2.501953 -0.07899,0.760299 -0.20306,2.070431 -0.28125,2.931152 -0.0784,0.863195 -0.203313,2.323149 -0.28125,3.259278 -0.0781,0.9383979 -0.203483,2.5028132 -0.28125,3.4833982 -0.07791,0.9826659 -0.202144,2.5945634 -0.279785,3.5874023 -0.07779,0.9948386 -0.203755,2.60204034 -0.28125,3.57568357 -0.07767,0.97560983 -0.200978,2.53146813 -0.27832,3.45556643 -0.07749,0.9260584 -0.202717,2.3780616 -0.279785,3.224121 -0.07725,0.8481122 -0.200261,2.1577415 -0.276856,2.9003906 -0.07684,0.7448429 -0.202702,1.8769839 -0.27832,2.4931639 v 0.0015 c -0.01335,0.108824 -0.03247,0.229468 -0.04834,0.353027 -0.0286,-0.196653 -0.05942,-0.382581 -0.08203,-0.544922 -0.07572,-0.543895 -0.199788,-1.515267 -0.276856,-2.1342768 -0.07666,-0.6155633 -0.202318,-1.6722349 -0.279785,-2.3378906 -0.07711,-0.662568 -0.20198,-1.7719902 -0.279785,-2.4609375 -0.07745,-0.6859738 -0.200291,-1.8075035 -0.27832,-2.4960938 -0.07772,-0.6858261 -0.202892,-1.78352012 -0.281251,-2.45068354 -0.07802,-0.66438761 -0.202489,-1.70559186 -0.28125,-2.33203126 -0.0784,-0.6237358 -0.201819,-1.5805335 -0.28125,-2.1503906 -0.07906,-0.5671026 -0.204968,-1.409301 -0.285644,-1.9101562 -0.08022,-0.4979805 -0.203656,-1.207611 -0.287109,-1.6333008 -0.08289,-0.4226693 -0.20382,-0.9790464 -0.294434,-1.331543 -0.09001,-0.3500993 -0.205705,-0.7405039 -0.320801,-1.0429689 -0.114655,-0.301383 -0.188876,-0.508932 -0.437988,-0.846679 -0.12759,-0.172976 -0.256545,-0.291825 -0.410156,-0.401368 -0.153613,-0.109543 -0.293513,-0.232943 -0.697266,-0.28125 -0.430924,-0.05179 -0.62866,0.0583 -0.810059,0.146485 -0.181399,0.08818 -0.330162,0.190015 -0.484863,0.351562 -0.335627,0.350657 -0.373684,0.506602 -0.498047,0.769043 -0.133243,0.281147 -0.24288,0.587859 -0.335449,0.8686525 -0.09629,0.2920901 -0.21617,0.7198693 -0.300293,1.0400391 -0.08638,0.3286815 -0.211073,0.8480612 -0.291504,1.2026367 -0.08206,0.3616546 -0.203811,0.9477269 -0.282715,1.3286132 -0.0801,0.3866783 -0.20631,1.0147274 -0.28418,1.4091797 -0.07888,0.3996302 -0.204129,1.0460558 -0.28125,1.4414063 -0.07804,0.4000898 -0.201965,1.0449042 -0.27832,1.4282226 -0.07725,0.3879474 -0.202979,1.00794758 -0.27832,1.36669922 -0.07629,0.36321407 -0.201456,0.94261029 -0.275391,1.265625 -0.0749,0.32716928 -0.199407,0.85101398 -0.270996,1.12792968 -0.07272,0.2812732 -0.198393,0.737752 -0.265137,0.956543 -0.06797,0.2227803 -0.197099,0.6024972 -0.254883,0.7543945 -0.01602,0.042112 -0.03796,0.084862 -0.06152,0.140625 C -28.256971,2.5039462 -28.347446,1.2620497 -28.347446,-6.5530511e-4 -28.347446,-15.65634 -15.655473,-28.346847 2.1132506e-4,-28.346847 15.203534,-28.346847 27.608388,-16.377379 28.312713,-1.3483115 c -0.05385,-0.00442 -0.156585,-0.013269 -0.228516,-0.019043 -0.07946,-0.0064 -0.202615,-0.017178 -0.294433,-0.023437 -0.0886,-0.00602 -0.211691,-0.013037 -0.298829,-0.017578 -0.08426,-0.00439 -0.207031,-0.010041 -0.303222,-0.013184 -0.08988,-0.00293 -0.214554,-0.0053 -0.314942,-0.00586 -0.09606,-5.192e-4 -0.217544,2.797e-4 -0.317871,0.00293 -0.102666,0.00271 -0.224911,0.00967 -0.314941,0.014648 -0.08493,0.00472 -0.207133,0.00981 -0.323731,0.020508 -0.113677,0.010443 -0.23461,0.025981 -0.32666,0.038086 -0.09456,0.012396 -0.215589,0.03043 -0.322266,0.04834 -0.105579,0.017758 -0.227739,0.039883 -0.325195,0.060059 -0.09939,0.020598 -0.220855,0.04934 -0.319336,0.073242 h -0.0015 c -0.102099,0.024812 -0.223191,0.056729 -0.314941,0.082031 h -0.0015 c -0.09692,0.026759 -0.219839,0.062882 -0.307617,0.0893555 -0.09458,0.028498 -0.215801,0.068253 -0.295899,0.09375 -0.08469,0.0269737 -0.210323,0.067132 -0.291504,0.09375 -0.09131,0.0299305 -0.215609,0.0729199 -0.27539,0.0922852 -0.07063,0.022861 -0.196195,0.0599031 -0.259278,0.0791016 v 0.00293 c -0.06958,0.0211934 -0.198218,0.0573832 -0.250488,0.0717773 -0.06449,0.0177131 -0.191844,0.0501894 -0.228515,0.0585938 -0.04601,0.010543 -0.174876,0.0384356 -0.215332,0.0454102 -0.05539,0.009537 -0.186145,0.0259541 -0.19043,0.0263672 -0.02028,0.001954 -0.152791,0.008761 -0.166992,0.008789 -0.01867,3.363e-5 -0.150509,-0.004832 -0.161133,-0.005859 -0.01866,-0.001798 -0.147732,-0.0226654 -0.152344,-0.0234375 h -0.0029 c -0.01256,-0.00277 -0.140843,-0.0372371 -0.147949,-0.0395508 -0.0073,-0.002395 -0.136729,-0.0528999 -0.159668,-0.0629883 h -0.0029 c -0.02092,-0.009495 -0.150508,-0.0741925 -0.177246,-0.0893555 -0.02465,-0.0139783 -0.155513,-0.0962226 -0.194824,-0.12304688 -0.03336,-0.022762 -0.163798,-0.11921257 -0.215332,-0.15966797 -0.04439,-0.0348379 -0.173654,-0.14172785 -0.23291,-0.19335935 -0.05203,-0.045344 -0.177928,-0.1617261 -0.246094,-0.2255859 h -0.0015 c -0.05992,-0.05621 -0.186519,-0.1794445 -0.262207,-0.253418 -0.06616,-0.064626 -0.190864,-0.1893396 -0.276855,-0.2739258 -0.07669,-0.07539 -0.200386,-0.1969181 -0.291504,-0.2841797 -0.07919,-0.075845 -0.199375,-0.1923065 -0.310547,-0.2915039 v -0.00146 c -0.09583,-0.085473 -0.214032,-0.1887397 -0.339844,-0.2871094 -0.111224,-0.086942 -0.225809,-0.1724623 -0.376465,-0.2680664 -0.129569,-0.082189 -0.238576,-0.150239 -0.437988,-0.2387695 -0.17705,-0.078628 -0.283517,-0.1215757 -0.512695,-0.1713868 -0.207051,-0.045049 -0.314155,-0.063077 -0.583008,-0.052734 -0.246949,0.0094 -0.35738,0.026485 -0.603516,0.1054687 -0.229023,0.073574 -0.342167,0.1259422 -0.552246,0.2578125 -0.203933,0.12809 -0.312896,0.2187408 -0.467285,0.3647461 -0.156123,0.1476265 -0.269328,0.2774637 -0.395508,0.4365234 -0.128165,0.1615952 -0.24545,0.33199 -0.351562,0.4980469 -0.109411,0.1712249 -0.230563,0.377809 -0.325196,0.5522461 -0.098,0.1806805 -0.218458,0.42511984 -0.306152,0.60791015 -0.09089,0.18941036 -0.214186,0.4611532 -0.297363,0.65039062 -0.08639,0.19655595 -0.2089,0.48950554 -0.288575,0.68115234 -0.08295,0.19950777 -0.208835,0.50806429 -0.285644,0.69726559 -0.08035,0.197968 -0.203599,0.5112881 -0.276856,0.6899414 -0.07717,0.188258 -0.204611,0.4920795 -0.273925,0.6533204 -0.07381,0.1716624 -0.198356,0.4593751 -0.260743,0.5917968 -0.04228,0.089774 -0.09702,0.1950015 -0.152343,0.3046875 C 11.84941,3.488114 11.800302,3.3712779 11.764372,3.2659462 11.701874,3.0827713 11.574314,2.6677173 11.50363,2.4163369 11.43407,2.1689595 11.307832,1.6792366 11.234099,1.3762978 11.161402,1.0775665 11.037355,0.5264323 10.961638,0.18098532 10.886889,-0.1601316 10.760004,-0.75894469 10.683317,-1.1344444 10.607501,-1.5055825 10.484103,-2.1397184 10.406462,-2.534835 10.329754,-2.9252434 10.203623,-3.5731681 10.125212,-3.9747764 10.047777,-4.3714783 9.9233526,-5.0133857 9.8439618,-5.4088584 9.7656636,-5.7988283 9.6421354,-6.4105776 9.561247,-6.7872764 9.4817027,-7.1578004 9.3590864,-7.716213 9.2756024,-8.0631553 9.1939842,-8.4024523 9.0709925,-8.8832635 8.9811688,-9.1954795 8.8941115,-9.4980405 8.77753,-9.875331 8.6706219,-10.156417 8.5690921,-10.42341 8.4752594,-10.662335 8.2912274,-10.963546 v -0.0015 c -0.085205,-0.139421 -0.1718832,-0.24996 -0.2739258,-0.363281 -0.1020426,-0.113321 -0.1663227,-0.219896 -0.4760743,-0.382324 -0.5692591,-0.298692 -0.9604244,-0.293765 -1.5161133,0.08203 -0.5287422,0.35737 -0.5171488,0.503701 -0.675293,0.810059 -0.1573285,0.304677 -0.2596671,0.597227 -0.3588868,0.915527 -0.099818,0.3203133 -0.2218787,0.7887962 -0.3076172,1.1704102 -0.086367,0.3843735 -0.2071711,1.0132703 -0.2885742,1.4707031 -0.081934,0.4603458 -0.2075106,1.2314457 -0.2871094,1.762207 -0.080005,0.5335959 -0.2025388,1.4296847 -0.28125,2.024414 -0.079091,0.597498 -0.2045119,1.5982636 -0.2827149,2.2426758 C 3.4651156,-0.5854432 3.3403103,0.485774 3.2624185,1.1624306 3.1842298,1.8418402 3.0602296,2.9552058 2.9826334,3.6438759 2.9046968,4.3353879 2.7801613,5.4556933 2.7028482,6.1341103 2.6251918,6.81554 2.5014547,7.9069973 2.4245279,8.5511025 2.3472271,9.1985251 2.2210547,10.218082 2.1447427,10.804032 2.0809828,11.293617 1.9887965,11.957467 1.9147622,12.473954 1.851986,11.97616 1.7878305,11.477966 1.7389809,11.044267 1.6628382,10.368094 1.5377223,9.1526928 1.4606606,8.3577431 1.3838005,7.5649754 1.2597009,6.1832386 1.1823403,5.2962197 1.1051348,4.4111864 0.98014567,2.9071497 0.90255512,1.9549111 0.82513485,1.00464 0.69900877,-0.57979873 0.62130511,-1.5680381 0.54373508,-2.554294 0.41938048,-4.1708038 0.34151994,-5.1642295 0.26383922,-6.1556056 0.13827271,-7.753082 0.06026992,-8.7194053 -0.01756127,-9.6835828 -0.13982741,-11.205621 -0.2180504,-12.113448 c -0.0780126,-0.905513 -0.20262957,-2.304891 -0.28125002,-3.124512 -0.0783753,-0.816931 -0.20470856,-2.041445 -0.2841797,-2.746582 -0.0791093,-0.701847 -0.20092884,-1.707173 -0.28271488,-2.279297 -0.081187,-0.567805 -0.2024365,-1.308959 -0.2929687,-1.747558 -0.089178,-0.432018 -0.1780217,-0.838718 -0.3413087,-1.245118 -0.078895,-0.196297 -0.1722791,-0.365202 -0.3134765,-0.544921 -0.070599,-0.08986 -0.1509282,-0.185073 -0.2929688,-0.292969 -0.1420407,-0.107896 -0.3581557,-0.272686 -0.7939453,-0.272461 -0.849879,5.46e-4 -0.94249,0.377048 -1.0869142,0.55957 -0.1444241,0.182523 -0.236963,0.357446 -0.3164062,0.559571 -0.1601556,0.407477 -0.2507742,0.827078 -0.3398438,1.277343 -0.089772,0.453696 -0.2118639,1.231364 -0.2929688,1.835449 -0.081454,0.606657 -0.2050795,1.681492 -0.2841797,2.444825 -0.079336,0.765711 -0.2028972,2.110355 -0.28125,3.017578 -0.078539,0.909236 -0.2031921,2.475366 -0.28125,3.502441 -0.078176,1.028899 -0.2033682,2.7720623 -0.28125,3.8891603 -0.077981,1.1187989 -0.2020235,2.9842177 -0.2797852,4.1572265 -0.077859,1.1746546 -0.2035691,3.10547497 -0.28125,4.2978516 -0.077768,1.194016 -0.2021982,3.1283106 -0.2797852,4.302246 -0.07768,1.1756386 -0.200848,3.0499416 -0.2783203,4.1674805 v 0.00293 c -0.077568,1.1193261 -0.2039832,2.8753431 -0.28125,3.8994141 -0.077393,1.026034 -0.2014252,2.607641 -0.2783203,3.503906 -0.038091,0.443982 -0.087897,0.941776 -0.1376954,1.479492 z" /></g><g
             id="g204"
             style="display:inline" /></g></g></g></g></svg>
